{"title":"General.Hospital.2016.06.29.720p.WEBRip","uid":15235579,"size":1360495151,"categoryP":"video","categoryS":"hd___tv_shows","magnet":"?xt=urn:btih:ab2c403605aa17cf6dfc921d2e9f49c6dcb40f7b&amp;dn=General.Hospital.2016.06.29.720p.WEBRip&amp;tr=udp%3A%2F%2Ftracker.leechers-paradise.org%3A6969&amp;tr=udp%3A%2F%2Fzer0day.ch%3A1337&amp;tr=udp%3A%2F%2Fopen.demonii.com%3A1337&amp;tr=udp%3A%2F%2Ftracker.coppersurfer.tk%3A6969&amp;tr=udp%3A%2F%2Fexodus.desync.com%3A6969","seeders":0,"leechers":0,"uploader":"gurfel65","files":2,"time":1467878092,"description":"General\r\nComplete name                  : General.Hospital.2016.06.29.720p.WEBRip.mp4\r\nFormat                         : MPEG-4\r\nFormat profile                 : Base Media\r\nCodec ID                       : isom\r\nFile size                      : 1.27 GiB\r\nDuration                       : 36mn 10s\r\nOverall bit rate               : 5 015 Kbps\r\nWriting application            : Lavf56.19.100\r\n\r\nVideo\r\nID                             : 1\r\nFormat                         : AVC\r\nFormat/Info                    : Advanced Video Codec\r\nFormat profile                 :   \r\nFormat settings, CABAC         : Yes\r\nFormat settings, ReFrames      : 2 frames\r\nCodec ID                       : avc1\r\nCodec ID/Info                  : Advanced Video Coding\r\nDuration                       : 36mn 10s\r\nBit rate                       : 4 920 Kbps\r\nWidth                          : 1 280 pixels\r\nHeight                         : 720 pixels\r\nDisplay aspect ratio           : 16:9\r\nFrame rate mode                : Variable\r\nFrame rate                     : 30.000 fps\r\nMinimum frame rate             : 11.987 fps\r\nMaximum frame rate             : 60.000 fps\r\nColor space                    : YUV\r\nChroma subsampling             : 4:2:0\r\nBit depth                      : 8 bits\r\nScan type                      : Progressive\r\nBits/(Pixel*Frame)             : 0.178\r\nStream size                    : 1.23 GiB (97%)\r\nWriting library                : x264 core 115 r1995M 5a37283\r\nEncoding settings              : cabac=1 / ref=2 / deblock=1:0:0 / analyse=0x3:0x113 / me=hex / subme=2 / psy=1 / psy_rd=1.00:0.00 / mixed_ref=0 / me_range=16 / chroma_me=1 / trellis=0 / 8x8dct=1 / cqm=0 / deadzone=21,11 / fast_pskip=1 / chroma_qp_offset=0 / threads=4 / sliced_threads=0 / nr=250 / decimate=1 / interlaced=0 / bluray_compat=0 / constrained_intra=0 / bframes=0 / weightp=1 / keyint=250 / keyint_min=25 / scenecut=40 / intra_refresh=0 / rc_lookahead=10 / rc=2pass / mbtree=1 / bitrate=4920 / ratetol=1.0 / qcomp=0.60 / qpmin=5 / qpmax=69 / qpstep=4 / cplxblur=20.0 / qblur=0.5 / ip_ratio=1.40 / aq=1:1.00\r\n\r\nAudio\r\nID                             : 2\r\nFormat                         : AAC\r\nFormat/Info                    : Advanced Audio Codec\r\nFormat profile                 : HE-AAC / LC\r\nCodec ID                       : 40\r\nDuration                       : 36mn 10s\r\nBit rate mode                  : Constant\r\nBit rate                       : 127 Kbps\r\nChannel(s)                     : 2 channels\r\nChannel positions              : Front: L R\r\nSampling rate                  : 48.0 KHz / 24.0 KHz\r\nCompression mode               : Lossy\r\nStream size                    : 32.8 MiB (3%)","torrent":{"xt":"urn:btih:ab2c403605aa17cf6dfc921d2e9f49c6dcb40f7b","amp;dn":"General.Hospital.2016.06.29.720p.WEBRip","amp;tr":["udp%3A%2F%2Ftracker.leechers-paradise.org%3A6969","udp%3A%2F%2Fzer0day.ch%3A1337","udp%3A%2F%2Fopen.demonii.com%3A1337","udp%3A%2F%2Ftracker.coppersurfer.tk%3A6969","udp%3A%2F%2Fexodus.desync.com%3A6969"],"infoHash":"ab2c403605aa17cf6dfc921d2e9f49c6dcb40f7b","infoHashBuffer":{"type":"Buffer","data":[171,44,64,54,5,170,23,207,109,252,146,29,46,159,73,198,220,180,15,123]},"announce":[],"urlList":[]}}